<?xml version="1.0" encoding="utf-8"?>
<svg xmlns="http://www.w3.org/2000/svg" viewBox="-1743.4568 -553.618 4695.0353 1996.7718" width="4695.04px" height="1996.77px">
  <g id="Layer_1" transform="matrix(0.7686100006103517, 0, 0, 0.7686100006103516, -1481.7621861556308, 252.6154444391068)" style="">
    <g transform="matrix(1, 0, 0, 1, -340.477783, -1048.949951)">
      <polygon class="st0" points="719.7,1956.5 179,1644.3 716.3,1334.1 1257,1646.3 &#9;" style="fill: rgb(255, 153, 0);"/>
      <path class="st1" d="M719.7,1976.5c-3.5,0-6.9-0.9-10-2.7L169,1661.6c-6.2-3.6-10-10.2-10-17.3s3.8-13.7,10-17.3l537.3-310.2 c6.2-3.6,13.8-3.6,20,0L1267,1629c6.2,3.6,10,10.2,10,17.3s-3.8,13.7-10,17.3l-537.3,310.2C726.6,1975.6,723.1,1976.5,719.7,1976.5 z M219,1644.3l500.7,289.1l497.3-287.1l-500.7-289.1L219,1644.3z" style="fill: rgb(32, 22, 0);"/>
    </g>
    <g transform="matrix(1, 0, 0, 1, -340.477783, -1048.949951)">
      <polygon class="st2" points="719.7,2577.9 179,2265.7 179,1645.3 719.7,1957.5 &#9;" style="fill: rgb(255, 236, 18);"/>
      <path class="st1" d="M719.7,2597.9c-3.5,0-6.9-0.9-10-2.7L169,2283c-6.2-3.6-10-10.2-10-17.3v-620.4c0-7.1,3.8-13.7,10-17.3 c6.2-3.6,13.8-3.6,20,0l540.7,312.2c6.2,3.6,10,10.2,10,17.3v620.4c0,7.1-3.8,13.7-10,17.3C726.6,2597,723.1,2597.9,719.7,2597.9z M199,2254.2l500.7,289.1V1969L199,1679.9V2254.2z" style="fill: rgb(32, 22, 0);"/>
    </g>
    <g transform="matrix(1, 0, 0, 1, -340.477783, -1048.949951)">
      <polygon class="st0" points="1258.7,2265.7 718,2577.9 718,1957.5 1258.7,1645.3 &#9;" style="fill: rgb(255, 153, 0);"/>
      <path class="st1" d="M718,2597.9c-3.5,0-6.9-0.9-10-2.7c-6.2-3.6-10-10.2-10-17.3v-620.4c0-7.1,3.8-13.7,10-17.3l540.7-312.2 c6.2-3.6,13.8-3.6,20,0s10,10.2,10,17.3v620.4c0,7.1-3.8,13.7-10,17.3L728,2595.2C724.9,2597,721.4,2597.9,718,2597.9z M738,1969 v574.2l500.7-289.1v-574.2L738,1969z M1258.7,2265.7L1258.7,2265.7L1258.7,2265.7z" style="fill: rgb(32, 22, 0);"/>
    </g>
    <g transform="matrix(1, 0, 0, 1, -340.477783, -1048.949951)">
      <polygon class="st3" points="560.7,1312.4 20,1000.2 557.3,690 1098,1002.2 &#9;" style="fill: rgb(0, 151, 246);"/>
      <path class="st1" d="M560.7,1332.4c-3.5,0-6.9-0.9-10-2.7L10,1017.5c-6.2-3.6-10-10.2-10-17.3s3.8-13.7,10-17.3l537.3-310.2 c6.2-3.6,13.8-3.6,20,0L1108,984.8c6.2,3.6,10,10.2,10,17.3s-3.8,13.7-10,17.3l-537.3,310.2 C567.6,1331.5,564.1,1332.4,560.7,1332.4z M60,1000.2l500.7,289.1l497.3-287.1L557.3,713.1L60,1000.2z" style="fill: rgb(32, 22, 0);"/>
    </g>
    <g transform="matrix(1, 0, 0, 1, -340.477783, -1048.949951)">
      <polygon class="st4" points="560.7,1933.7 20,1621.6 20,1001.2 560.7,1313.3 &#9;" style="fill: rgb(0, 189, 214);"/>
      <path class="st1" d="M560.7,1953.7c-3.5,0-6.9-0.9-10-2.7L10,1638.9c-6.2-3.6-10-10.2-10-17.3v-620.4c0-7.1,3.8-13.7,10-17.3 c6.2-3.6,13.8-3.6,20,0L570.7,1296c6.2,3.6,10,10.2,10,17.3v620.4c0,7.1-3.8,13.7-10,17.3C567.6,1952.8,564.1,1953.7,560.7,1953.7z M40,1610l500.7,289.1v-574.2L40,1035.8V1610z" style="fill: rgb(32, 22, 0);"/>
    </g>
    <g transform="matrix(1, 0, 0, 1, -340.477783, -1048.949951)">
      <polygon class="st3" points="1099.6,1621.6 559,1933.7 559,1313.3 1099.6,1001.2 &#9;" style="fill: rgb(0, 151, 246);"/>
      <path class="st1" d="M559,1953.7c-3.5,0-6.9-0.9-10-2.7c-6.2-3.6-10-10.2-10-17.3v-620.4c0-7.1,3.8-13.7,10-17.3l540.7-312.2 c6.2-3.6,13.8-3.6,20,0c6.2,3.6,10,10.2,10,17.3v620.4c0,7.1-3.8,13.7-10,17.3L569,1951.1C565.9,1952.8,562.4,1953.7,559,1953.7z M579,1324.9v574.2l500.7-289.1v-574.2L579,1324.9z M1099.6,1621.6L1099.6,1621.6L1099.6,1621.6z" style="fill: rgb(32, 22, 0);"/>
    </g>
    <g transform="matrix(1, 0, 0, 1, -340.477783, -1048.949951)">
      <polygon class="st5" points="718.8,642.4 178.2,330.2 715.5,20 1256.1,332.2 &#9;" style="fill: rgb(107, 196, 60);"/>
      <path class="st1" d="M718.8,662.4c-3.5,0-6.9-0.9-10-2.7L168.2,347.5c-6.2-3.6-10-10.2-10-17.3s3.8-13.7,10-17.3L705.5,2.7 c6.2-3.6,13.8-3.6,20,0l540.7,312.2c6.2,3.6,10,10.2,10,17.3s-3.8,13.7-10,17.3L728.8,659.7C725.7,661.5,722.3,662.4,718.8,662.4z M218.2,330.2l500.7,289.1l497.3-287.1L715.5,43.1L218.2,330.2z" style="fill: rgb(32, 22, 0);"/>
    </g>
    <g transform="matrix(1, 0, 0, 1, -340.477783, -1048.949951)">
      <polygon class="st5" points="718.8,1263.7 178.2,951.6 178.2,331.2 718.8,643.3 &#9;" style="fill: rgb(107, 196, 60);"/>
      <path class="st1" d="M718.8,1283.7c-3.5,0-6.9-0.9-10-2.7L168.2,968.9c-6.2-3.6-10-10.2-10-17.3V331.2c0-7.1,3.8-13.7,10-17.3 c6.2-3.6,13.8-3.6,20,0L728.8,626c6.2,3.6,10,10.2,10,17.3v620.4c0,7.1-3.8,13.7-10,17.3C725.7,1282.8,722.3,1283.7,718.8,1283.7z M198.2,940l500.7,289.1V654.9L198.2,365.8V940z" style="fill: rgb(32, 22, 0);"/>
    </g>
    <g transform="matrix(1, 0, 0, 1, -340.477783, -1048.949951)">
      <polygon class="st6" points="1257.8,951.6 717.2,1263.7 717.2,643.3 1257.8,331.2 &#9;" style="fill: rgb(0, 177, 71);"/>
      <path class="st1" d="M717.2,1283.7c-3.5,0-6.9-0.9-10-2.7c-6.2-3.6-10-10.2-10-17.3V643.3c0-7.1,3.8-13.7,10-17.3l540.7-312.2 c6.2-3.6,13.8-3.6,20,0c6.2,3.6,10,10.2,10,17.3v620.4c0,7.1-3.8,13.7-10,17.3l-540.7,312.2 C724.1,1282.8,720.6,1283.7,717.2,1283.7z M737.2,654.9v574.2L1237.8,940V365.8L737.2,654.9z M1257.8,951.6L1257.8,951.6 L1257.8,951.6z" style="fill: rgb(32, 22, 0);"/>
    </g>
    <g transform="matrix(1, 0, 0, 1, -340.477783, -1048.949951)">
      <path class="st7" d="M308.6,347.2c-5.5,0-10.9-2.8-13.8-7.9c-4.5-7.6-1.9-17.4,5.7-21.9L709.1,78.6c7.6-4.5,17.4-1.9,21.9,5.7 c4.5,7.6,1.9,17.4-5.7,21.9L316.6,345C314.1,346.5,311.3,347.2,308.6,347.2z" style="fill: rgb(255, 255, 255);"/>
    </g>
    <g transform="matrix(1, 0, 0, 1, -340.477783, -1048.949951)">
      <path class="st7" d="M234.5,935c-8.8,0-16-7.2-16-16V422.4c0-8.8,7.2-16,16-16s16,7.2,16,16V919C250.5,927.9,243.4,935,234.5,935z" style="fill: rgb(255, 255, 255);"/>
    </g>
    <g transform="matrix(1, 0, 0, 1, -340.477783, -1048.949951)">
      <path class="st8" d="M71.3,1582.4" style="fill: none; stroke: rgb(255, 255, 255); stroke-linecap: round; stroke-linejoin: round; stroke-miterlimit: 10; stroke-width: 32px;"/>
    </g>
    <g transform="matrix(1, 0, 0, 1, -340.477783, -1048.949951)">
      <path class="st8" d="M71.3,1085.8" style="fill: none; stroke: rgb(255, 255, 255); stroke-linecap: round; stroke-linejoin: round; stroke-miterlimit: 10; stroke-width: 32px;"/>
    </g>
    <g transform="matrix(1, 0, 0, 1, -340.477783, -1048.949951)">
      <path class="st7" d="M496.1,1846.8c-8.8,0-16-7.2-16-16v-496.6c0-8.8,7.2-16,16-16s16,7.2,16,16v496.6 C512.1,1839.6,504.9,1846.8,496.1,1846.8z" style="fill: rgb(255, 255, 255);"/>
    </g>
    <g transform="matrix(1, 0, 0, 1, -340.477783, -1048.949951)">
      <path class="st7" d="M234.5,2251.5c-8.8,0-16-7.2-16-16v-432.1c0-8.8,7.2-16,16-16s16,7.2,16,16v432.1 C250.5,2244.4,243.4,2251.5,234.5,2251.5z" style="fill: rgb(255, 255, 255);"/>
    </g>
  </g>
  <text style="fill: rgb(51, 51, 51); font-family: Arial, sans-serif; font-size: 1251px; font-weight: 700; white-space: pre;" x="-520.21" y="582.334">Mautii</text>
  <text style="fill: rgb(51, 51, 51); font-family: Arial, sans-serif; font-size: 767px; white-space: pre;" x="-490.27" y="1269.04">Interactive</text>
</svg>